<!--?xml version="1.0" encoding="utf-8"?-->
<!-- Generator: Adobe Illustrator 15.1.0, SVG Export Plug-In . SVG Version: 6.00 Build 0)  -->

<svg version="1.1" id="_x32_" xmlns="http://www.w3.org/2000/svg" xmlns:xlink="http://www.w3.org/1999/xlink" x="0px" y="0px" width="512px" height="512px" viewBox="0 0 512 512" style="width: 256px; height: 256px; opacity: 1;" xml:space="preserve">
<style type="text/css">

	.st0{fill:#4B4B4B;}

</style>
<g>
	<path class="st0" d="M424.172,256.109c-0.078-11.109-0.172-24.078-0.266-36.203c-0.078-10.688-0.156-20.656-0.219-28.156
		c-0.031-3.75-0.063-6.875-0.094-9.172c-0.031-1.141-0.047-2.078-0.063-2.797l-0.031-0.969c-0.016-0.328,0-0.469-0.063-1.188v-0.031
		c-1.281-11.375-3.344-33.219-19-52.375c-7.828-9.563-19.016-18.156-34.141-24.125c-6.891-2.703-14.625-4.875-23.203-6.469
		c5.484-8.797,8.719-19.125,8.719-30.25c0-31.813-25.781-57.594-57.594-57.594c-16.703,0-31.656,7.219-42.172,18.594
		C245.531,13.969,230.5,6.781,213.75,6.781c-31.781,0-57.563,25.781-57.563,57.594c0,11.156,3.281,21.516,8.781,30.344
		c-10.844,1.969-20.453,4.813-28.625,8.563c-20.609,9.375-32.828,24.094-39.297,38.313c-6.531,14.156-7.891,27.75-8.797,36v0.031
		c-0.078,0.813-0.063,0.938-0.094,1.344c-0.078,2.531-0.141,9.906-0.219,20.125c-0.125,15.25-0.25,36.281-0.344,53.563
		c0,1.25,0,2.438,0,3.656c-39,33.188-85.969,67.719-87.547,122.875C-1.781,444.156,49.141,489.5,108.813,496.906
		c51.422,6.406,86.891,8.313,147.188,8.313c60.281,0,95.75-1.906,147.188-8.313c59.656-7.406,110.594-52.75,108.766-117.719
		C510.375,323.906,463.203,289.375,424.172,256.109z M400.531,180.031v0.031l-0.016-0.031H400.531z M269.688,77.875
		c0.375-1.547,0.656-3,0.875-4.375l0.016-0.063l0.063-0.406c0.078-0.594,0.188-1.156,0.266-1.75v-0.063
		c0.25-2.125,0.453-4.406,0.453-6.844c0-2.031-0.125-4.031-0.328-6l0,0l-0.016-0.281l-0.172-1c-0.188-1.531-0.391-3.031-0.719-4.516
		c0,0,0-0.047,0-0.063l-0.078-0.359l-0.203-0.719c-0.359-1.547-0.75-3.094-1.219-4.563c-0.016-0.031-0.016-0.031-0.016-0.031
		l-0.016-0.125c6.016-10.125,17-16.922,29.625-16.906c9.578,0,18.156,3.844,24.453,10.125c6.25,6.281,10.109,14.844,10.125,24.438
		c0,11.219-5.391,21.063-13.719,27.406c-2.297-0.063-4.609-0.125-6.984-0.125h-34.797c-3.516-2.688-6.5-5.984-8.75-9.781
		c0.141-0.469,0.313-0.906,0.469-1.422c0.016-0.078,0.031-0.141,0.047-0.234c0.203-0.719,0.406-1.438,0.594-2.188
		c0.031-0.094,0.031-0.156,0.063-0.25L269.688,77.875z M304.063,387.344c-3.188,5.969-7.578,10.969-13.125,15.047
		c-5.563,4.078-12.234,7.125-19.984,9.109c-3.391,0.875-6.938,1.469-10.547,1.938v22.594h-26.938v-22.125
		c-7.656-0.656-15-1.844-21.891-3.75c-10.547-2.875-24.359-14.531-24.359-14.531c-1.172-0.688-1.969-1.906-2.125-3.25
		c-0.172-1.359,0.281-2.719,1.25-3.688l13.5-13.5c1.453-1.438,3.719-1.719,5.469-0.641c0,0,10.094,8.766,17.75,10.859
		c7.656,2.063,15.25,3.125,22.813,3.125c9.563,0,17.469-1.688,23.719-5.063c6.281-3.391,9.406-8.656,9.406-15.844
		c0-5.156-1.531-9.234-4.625-12.219c-3.094-2.969-8.313-4.844-15.656-5.656l-24.188-2.094c-14.313-1.406-25.344-5.375-33.094-11.938
		c-7.781-6.563-11.656-16.5-11.656-29.813c0-7.375,1.5-13.953,4.484-19.719c2.984-5.75,7.063-10.625,12.234-14.625
		c5.172-3.969,11.188-6.938,18.047-8.938c2.875-0.813,5.875-1.375,8.922-1.875v-19.438h26.938v19.031
		c6.297,0.625,12.281,1.656,17.844,3.188c9.453,2.563,19.375,10.313,19.375,10.313c1.234,0.656,2.094,1.875,2.297,3.234
		c0.219,1.422-0.234,2.797-1.234,3.797l-12.641,12.875c-1.359,1.344-3.453,1.719-5.156,0.813c0,0-7.484-5.344-13.984-7.031
		c-6.469-1.688-13.25-2.531-20.422-2.531c-9.359,0-16.266,1.781-20.734,5.375c-4.484,3.594-6.703,8.25-6.703,14
		c0,5.203,1.563,9.172,4.766,11.938c3.172,2.813,8.547,4.625,16.109,5.375l21.188,1.813c15.703,1.375,27.578,5.563,35.641,12.516
		s12.078,17.109,12.078,30.422C308.828,374.406,307.25,381.375,304.063,387.344z M378.219,204.156
		c-7.547-16.328,9.031-62.063-70.906-62.063c-24.031,0-38.188,0-46.328,0c0.141,0-1.047,0-4.984,0c-1.313,0-3,0-4.984,0
		c-8.141,0-22.313,0-46.313,0c-79.969,0-63.359,45.734-70.906,62.063c-5.063,10.938-13.219,21.125-23.078,31.063
		c0.063-7.813,0.094-15.75,0.156-23.094c0.047-8.906,0.109-16.938,0.156-22.875c0.047-2.953,0.078-5.391,0.094-7.125
		c0.031-0.875,0.031-1.531,0.047-2l0.016-0.375c1.125-10.766,3.094-25.813,12.688-38.406c4.859-6.344,11.641-12.313,22.094-17.125
		c10.438-4.813,24.641-8.391,44-9.281c5.047-0.234,9.328-3.719,10.609-8.594c1.266-4.875-0.766-10.031-5.047-12.688
		c-9.828-6.156-16.313-16.938-16.313-29.281c0-9.594,3.844-18.156,10.125-24.438s14.844-10.125,24.406-10.125
		c9.594,0,18.156,3.844,24.453,10.125c3.031,3.031,5.453,6.625,7.172,10.563l0.125,0.219c0.109,0.281,0.188,0.531,0.297,0.781
		c0.703,1.813,1.313,3.656,1.734,5.594l0.031,0.156l0.031,0.172c0.031,0.078,0.031,0.203,0.063,0.313
		c0.406,2.141,0.672,4.359,0.672,6.641c0,1.219-0.109,2.563-0.281,4l-0.234,1.531l0.016-0.063c-0.156,0.969-0.328,1.813-0.5,2.594
		l-0.016,0.063l-0.406,1.469c-0.219,0.75-0.469,1.531-0.766,2.344l-0.641,1.625c-2.75,6.391-7.344,11.781-13.172,15.531
		c-0.031,0.031-0.078,0.047-0.094,0.094c-0.438,0.25-0.813,0.578-1.188,0.906c-0.203,0.188-0.438,0.344-0.609,0.531
		c-0.281,0.281-0.531,0.594-0.797,0.906c-0.203,0.281-0.453,0.531-0.641,0.781c-0.203,0.313-0.344,0.656-0.531,0.969
		c-0.188,0.344-0.391,0.656-0.531,0.969c-0.125,0.313-0.203,0.656-0.313,0.969c-0.141,0.406-0.281,0.781-0.359,1.172
		c-0.047,0.266-0.078,0.547-0.109,0.828c-0.063,0.5-0.125,0.969-0.141,1.469L227,103.188c0,0.219,0.063,0.469,0.078,0.719
		c0.031,0.469,0.047,0.938,0.156,1.406c0.047,0.344,0.172,0.688,0.25,1.016c0.109,0.391,0.219,0.766,0.359,1.141
		c0.156,0.406,0.375,0.75,0.563,1.125c0.156,0.25,0.25,0.531,0.406,0.781c0.031,0.031,0.063,0.063,0.094,0.125
		c0.234,0.344,0.5,0.656,0.781,0.969c0.219,0.281,0.422,0.563,0.656,0.813c0.234,0.219,0.5,0.406,0.75,0.625
		c0.313,0.266,0.609,0.563,0.953,0.781c0.281,0.188,0.578,0.313,0.859,0.5c0.359,0.188,0.703,0.406,1.094,0.563
		c0.297,0.156,0.656,0.219,1,0.328c0.375,0.109,0.719,0.266,1.125,0.359c0.281,0.063,0.578,0.063,0.875,0.109
		c0.453,0.047,0.922,0.141,1.375,0.141c0.063,0,0.094,0,0.141,0h31.641h41.938c3.344,0,6.563,0.109,9.797,0.266
		c16.922,0.797,29.984,3.641,39.922,7.578c8.875,3.531,15.344,7.813,20.313,12.5c7.438,7,11.609,14.953,14.234,22.938
		c2.563,7.844,3.453,15.531,4.141,21.813c0,0.188,0.016,0.75,0.031,1.594c0.141,7.219,0.297,30.844,0.469,53.563
		C391.266,225.094,383.203,215,378.219,204.156z" style="fill: rgb(0, 0, 0);"></path>
</g>
</svg>
