<!--?xml version="1.0" encoding="utf-8"?-->
<!-- Generator: Adobe Illustrator 19.1.1, SVG Export Plug-In . SVG Version: 6.00 Build 0)  -->
<svg version="1.1" id="_x31_0" xmlns="http://www.w3.org/2000/svg" xmlns:xlink="http://www.w3.org/1999/xlink" x="0px" y="0px" viewBox="0 0 512 512" style="width: 64px; height: 64px; opacity: 1;" xml:space="preserve">
<style type="text/css">
	.st0{fill:#374149;}
</style>
<g>
	<path class="st0" d="M292.926,204.121c0.27,0.043,0.547,0.047,0.813,0.114c-0.028-0.035-0.059-0.066-0.086-0.102
		c0.074,0.004,0.141,0,0.215,0.004c-13.516-17.332-35.516-27.734-59.715-25.047c-30.777,3.469-55.538,28.942-58.23,59.785
		c-1.766,21.086,6.442,40.402,20.379,53.629c2.617-49.242,43.442-88.441,93.254-88.441
		C290.657,204.063,291.786,204.086,292.926,204.121z" style="fill: rgb(0, 0, 0);"></path>
	<path class="st0" d="M485.324,173.216l0.074-0.282l22.637-114.476L512,38.645l-19.598-4.949l-10.047-2.477l-13.515-3.469
		L454.055,24l-20.661-5.164l-2.125-0.566l-19.598-4.957l-3.539-0.918l-19.527-4.879l-5.942,19.246l-7.789,25.206l-1.793,5.695
		c-34.805-20.793-75.476-32.671-118.836-32.671c-46.414,0-89.644,13.582-125.937,37.144c-17.406-25.542-42.594-45.496-68.492-45.496
		c-4.738,0-9.41,0.711-13.867,1.981C25.29,24.708,10.224,43.668,3.571,72.04C-1.807,94.824-1.1,121,5.622,143.856
		c5.234,17.902,14.293,33.75,25.754,46.058c-6.578,21.508-10.117,44.363-10.117,68.062c0,30.566,5.961,59.746,16.699,86.504
		c0.07,0.172,0.125,0.348,0.195,0.516c1.41,3.492,2.953,6.91,4.527,10.316c0.531,1.156,1.016,2.336,1.57,3.484
		c1.27,2.637,2.652,5.199,4.019,7.778c0.962,1.82,1.875,3.668,2.883,5.461c1.187,2.106,2.477,4.145,3.726,6.211
		c1.293,2.137,2.547,4.293,3.91,6.39c1.281,1.965,2.656,3.856,3.988,5.782c1.43,2.05,2.813,4.129,4.309,6.14
		c1.714,2.305,3.535,4.524,5.332,6.766c1.195,1.493,2.344,3.02,3.578,4.485c2.758,3.27,5.626,6.434,8.555,9.547
		c0.324,0.343,0.625,0.706,0.953,1.05c13.711,14.398,29.211,27.078,46.199,37.61l2.262,8.422
		c4.813,18.32,21.301,31.129,39.906,31.129c2.547,0,5.098-0.211,7.574-0.707c7.426-1.484,14.218-4.882,19.734-9.977
		c17.054,3.962,34.816,6.086,53.066,6.086c17.262,0,34.172-1.91,50.375-5.516c5.59,8.91,14.226,15.278,24.34,17.825
		c3.183,0.781,6.582,1.206,9.836,1.206c19.316,0,35.801-13.374,40.187-32.48l4.668-20.375
		c62.406-41.816,103.582-112.988,103.582-193.652c0-23.769-3.535-46.691-10.187-68.273c4.598-5.45,7.004-11.11,8.21-16.133
		L485.324,173.216z M418.961,37.095L406.086,81.38l-11.114,38.21l-4.102,14.078c-0.637,2.402,0.782,4.879,3.11,5.516
		c0.359,0.074,0.711,0.14,1.066,0.14c2.047,0,3.89-1.41,4.382-3.535l2.477-8.773l11.039-39.41L426.527,39l14.766,3.672l0.024,0.008
		l-15.07,58.297l-10.118,39.058c-0.566,2.477,0.848,4.953,3.184,5.519c0.355,0.137,0.707,0.137,1.058,0.137
		c1.985,0,3.824-1.41,4.39-3.465l8.278-33.465l15.82-64.05l0.031-0.121l14.715,3.75l-17.547,77.543l-4.598,20.519
		c-0.64,2.477,0.848,4.953,3.184,5.59c0.355,0.07,0.707,0.141,1.058,0.141c1.985,0,3.894-1.414,4.386-3.539l2.688-12.449
		l17.77-82.641l0.707-3.254l15.98,4.031l-21.156,106.695l-1.555,7.781c-2.332,10.191-13.511,16.278-25.398,19.883
		c-3.117,0.992-6.297,1.77-9.41,2.406c-5.305,1.133-9.481,5.238-10.688,10.543l-49.453,216.574l-11.039,48.114l-0.21,0.988
		c-2.191,9.55-10.473,15.992-19.527,15.992c-1.485,0-3.114-0.214-4.672-0.566c-2.614-0.641-4.95-1.84-6.934-3.394
		c-6.226-4.813-9.336-13.305-7-21.652l4.172-15.145l68.488-247.066c1.488-5.305-0.282-10.965-4.527-14.434
		c-11.531-9.554-23.489-23.062-19.809-36.508l11.813-38.351l11.25-36.293l11.39-36.863l15.653,4.019L418.961,37.095z
		 M177.411,473.988c-1.203,0.286-2.336,0.352-3.539,0.352c-8.985,0-17.05-6.508-19.383-15.422l-9.835-36.723L86.208,203.641
		c-1.27-4.738-4.882-8.559-9.621-9.692c-2.762-0.636-5.516-1.558-8.207-2.762c-10.614-4.598-20.519-13.015-28.586-24.339
		c-5.801-8.278-10.614-18.039-13.793-28.934C14.537,98.856,24.021,47.204,51.966,39c2.546-0.777,5.164-1.133,7.851-1.133
		c17.621,0,37.144,15.566,51.156,36.438c6.863,10.118,12.453,21.438,15.848,32.902c0.144,0.351,0.285,0.703,0.355,1.058
		c8.699,29.504,3.043,58.516-12.313,74.504c-3.394,3.469-4.386,8.703-2.898,13.301l79.383,249.05l1.133,3.535
		C196.017,459.836,189.157,471.722,177.411,473.988z M348.207,138.266l-0.07,0.352l-0.07,0.281
		c-3.539,12.95-2.196,32.832,23.136,55.332l-3.934,14.156l-3.363,11.606c-15.695-45.453-58.937-78.191-109.66-78.191
		c-45.05,0-84.202,25.836-103.429,63.453c-3.066,5.902-5.684,12.09-7.715,18.566l-9.629-30.156
		c18.465-22.359,24.054-57.519,14.082-91.41c-0.852-2.832-1.77-5.661-2.833-8.563c31.344-21.015,69.055-33.254,109.523-33.254
		c39.836,0,76.981,11.887,108.039,32.336L348.207,138.266z M174.013,320.879l-21.649-67.992
		c2.618-53.914,47.332-96.934,101.882-96.934c53.422,0,97.359,41.321,101.602,93.68l-18.746,67.706
		c-18.539,25.754-48.75,42.594-82.856,42.594C221.704,359.933,192.692,344.648,174.013,320.879z M254.246,374.086
		c23.754,0,45.782-7.234,64.16-19.527c3.586-2.352,7.094-4.832,10.43-7.582l-28.527,102.953c-14.789,3.61-30.21,5.52-46.062,5.52
		c-13.652,0-26.957-1.414-39.762-4.031c-0.214-3.114-0.847-6.227-1.77-9.199l-29.499-92.473
		C202.88,365.028,227.505,374.086,254.246,374.086z M56.704,257.976c0-15.988,1.91-31.48,5.524-46.339
		c1.484,0.566,2.969,1.133,4.523,1.629l26.722,99.859l22.894,86.09C79.552,363.356,56.704,313.277,56.704,257.976z M396.734,394.332
		l41.965-183.546c2.406-0.566,4.668-1.199,6.863-1.91c4.035,15.71,6.157,32.125,6.157,49.101c0,42.922-13.778,82.722-37.176,115.18
		C409.153,380.562,403.215,387.64,396.734,394.332z" style="fill: rgb(0, 0, 0);"></path>
	<path class="st0" d="M53.666,58.384c-8.141,0.074-17.622,11.465-17.547,25.473c0,10.187,4.316,16.699,10.543,19.531
		c0.492,0.21,0.988,0.281,1.484,0.281c1.981,0,3.68-1.629,3.75-3.75c0-3.891,0.562-7.852,1.77-11.887
		c2.546-8.066,6.366-13.938,10.894-17.758c1.488-1.278,1.766-3.539,0.496-5.098C61.728,61.004,57.556,58.458,53.666,58.384z" style="fill: rgb(0, 0, 0);"></path>
</g>
</svg>
